<svg xmlns="http://www.w3.org/2000/svg" viewBox="0 0 1600 900">
<defs><linearGradient id="bg" x1="0" y1="0" x2="1" y2="1"><stop stop-color="#efe9ff"/><stop offset=".5" stop-color="#e2f7ff"/><stop offset="1" stop-color="#fff6cf"/></linearGradient></defs>
<rect width="1600" height="900" fill="url(#bg)"/>
<g transform="translate(920 260)">
 <path d="M0 80 Q170 0 340 80 V410 Q170 325 0 410Z" fill="#fff" stroke="#7f93ff" stroke-width="10"/>
 <path d="M340 80 Q510 0 680 80 V410 Q510 325 340 410Z" fill="#fff" stroke="#7f93ff" stroke-width="10"/>
 <path d="M340 80V410" stroke="#7f93ff" stroke-width="10"/>
 <path d="M95 170 C190 125 260 130 305 160" fill="none" stroke="#9fd8ee" stroke-width="9" stroke-linecap="round"/>
 <path d="M420 170 C515 125 585 130 630 160" fill="none" stroke="#d6b8ff" stroke-width="9" stroke-linecap="round"/>
</g>
<g fill="#fff" opacity=".82"><ellipse cx="230" cy="175" rx="170" ry="48"/><ellipse cx="420" cy="205" rx="145" ry="42"/></g>
<g transform="translate(1040 130) rotate(-8)" fill="#12345a"><path d="M0 28 L135 0 95 44 135 88 0 62 42 44Z"/></g>
</svg>